<svg width="21" height="21" viewBox="0 0 21 21" fill="none" xmlns="http://www.w3.org/2000/svg">
<path d="M19.1238 9.95962C19.1272 11.2795 18.8188 12.5815 18.2238 13.7596C17.5182 15.1714 16.4335 16.3588 15.0912 17.1889C13.7489 18.019 12.202 18.459 10.6238 18.4596C9.30391 18.4631 8.00189 18.1547 6.82378 17.5596L1.12378 19.4596L3.02378 13.7596C2.42871 12.5815 2.12034 11.2795 2.12378 9.95962C2.12439 8.38138 2.56439 6.83447 3.3945 5.49217C4.22461 4.14987 5.41203 3.06519 6.82378 2.35962C8.00189 1.76455 9.30391 1.45618 10.6238 1.45962H11.1238C13.2081 1.57461 15.1768 2.45438 16.6529 3.93048C18.129 5.40658 19.0088 7.37528 19.1238 9.45962V9.95962Z" stroke="rgb(252 165 165)" stroke-width="2" stroke-linecap="round" stroke-linejoin="round"/>
</svg>
