<svg width="23" height="23" viewBox="0 0 23 23" fill="none" xmlns="http://www.w3.org/2000/svg">
<path d="M21.1192 16.0073V19.0073C21.1203 19.2858 21.0633 19.5615 20.9517 19.8167C20.8401 20.0718 20.6765 20.3009 20.4713 20.4892C20.2661 20.6775 20.0238 20.8208 19.7599 20.91C19.4961 20.9992 19.2166 21.0324 18.9392 21.0073C15.862 20.673 12.9062 19.6215 10.3092 17.9373C7.89302 16.402 5.84453 14.3535 4.3092 11.9373C2.61917 9.32852 1.56744 6.35831 1.2392 3.26732C1.21421 2.99078 1.24707 2.71208 1.3357 2.44894C1.42432 2.1858 1.56677 1.94401 1.75396 1.73894C1.94116 1.53387 2.169 1.37003 2.42299 1.25784C2.67697 1.14565 2.95154 1.08758 3.2292 1.08732H6.2292C6.7145 1.08254 7.18499 1.25439 7.55296 1.57085C7.92093 1.8873 8.16127 2.32676 8.2292 2.80732C8.35582 3.76738 8.59065 4.71004 8.9292 5.61732C9.06374 5.97524 9.09286 6.36423 9.0131 6.7382C8.93335 7.11216 8.74806 7.45543 8.4792 7.72732L7.2092 8.99732C8.63275 11.5009 10.7057 13.5738 13.2092 14.9973L14.4792 13.7273C14.7511 13.4585 15.0943 13.2732 15.4683 13.1934C15.8423 13.1137 16.2313 13.1428 16.5892 13.2773C17.4965 13.6159 18.4391 13.8507 19.3992 13.9773C19.885 14.0458 20.3286 14.2905 20.6457 14.6648C20.9629 15.0391 21.1314 15.5169 21.1192 16.0073Z" stroke="black" stroke-width="2" stroke-linecap="round" stroke-linejoin="round"/>
</svg>
